<svg width="38" height="40" viewBox="0 0 38 40" fill="none" xmlns="http://www.w3.org/2000/svg">
<path fill-rule="evenodd" clip-rule="evenodd" d="M0 20.4353L0.00193 20.2349L0.00590992 20.0344L0.01195 19.8339L0.02004 19.6334L0.0302 19.4329L0.0424099 19.2324L0.05669 19.032L0.07302 18.8316L0.0914199 18.6313L0.11188 18.431L0.1344 18.231L0.15897 18.031L0.18561 17.8312L0.21431 17.6316L0.24506 17.4322L0.27787 17.2331L0.31274 17.0341L0.34965 16.8355L0.38862 16.6371L0.42964 16.439L0.47271 16.2412L0.51781 16.0438L0.56497 15.8468L0.61415 15.6501L0.66538 15.4539L0.71863 15.258L0.77392 15.0626L0.83123 14.8677L0.89056 14.6733L0.9519 14.4794L1.01526 14.286L1.08063 14.0931L1.148 13.9008L1.21736 13.7091L1.28872 13.518L1.36206 13.3275L1.43739 13.1377L1.51469 12.9485L1.59396 12.7601L1.67519 12.5723L1.75838 12.3852L1.84352 12.1989L1.9306 12.0134L2.01962 11.8286L2.11057 11.6446L2.20344 11.4615L2.29822 11.2792L2.39491 11.0977L2.49349 10.9172L2.59396 10.7375L2.69632 10.5587L2.80054 10.3809L2.90663 10.204L3.01457 10.0281L3.12436 9.8532L3.23598 9.6793L3.34943 9.5065L3.4647 9.3346L3.58177 9.1639L3.70064 8.9942L3.82129 8.8256L3.94371 8.6582L4.0679 8.4918L4.19384 8.3267L4.32153 8.1627L4.45094 7.99984L4.58207 7.83824L4.71491 7.67786L4.84944 7.51872L4.98566 7.36083L5.12355 7.20422L5.26309 7.04891L5.40428 6.8949L5.54711 6.74222L5.69155 6.59088L5.8376 6.4409L5.98524 6.29229L6.13446 6.14507L6.28525 5.99926L6.43759 5.85487L6.59147 5.71193L6.74687 5.57043L6.90378 5.43041L7.06219 5.29187L7.22208 5.15482L7.38343 5.0193L7.54623 4.88531L7.71047 4.75286L7.87613 4.62197L8.0432 4.49265L8.2116 4.36493L8.3815 4.2388L8.5527 4.1143L8.7252 3.99143L8.899 3.8702L9.0742 3.75063L9.2506 3.63272L9.4283 3.51651L9.6073 3.40199L9.7876 3.28919L9.969 3.17811L10.1517 3.06876L10.3355 2.96117L10.5205 2.85534L10.7067 2.75128L10.894 2.64901L11.0824 2.54853L11.2719 2.44987L11.4625 2.35302L11.6542 2.25801L11.8469 2.16484L12.0407 2.07352L12.2354 1.98407L12.4312 1.8965L12.6279 1.81081L12.8256 1.72702L13.0242 1.64514L13.2237 1.56517L13.4241 1.48712L13.6254 1.41102L13.8275 1.33685L14.0305 1.26465L14.2343 1.1944L14.4389 1.12612L14.6442 1.05983L14.8503 0.99552L15.0572 0.93321L15.2648 0.87291L15.473 0.81462L15.682 0.75834L15.8916 0.70409L16.1018 0.65188L16.3126 0.60172L16.5241 0.55359L16.7361 0.50753L16.9486 0.46352L17.1617 0.42158L17.3753 0.38172L17.5894 0.34393L17.804 0.30823L18.019 0.27462L18.2344 0.2431L18.4502 0.21369L18.6664 0.18638L18.883 0.16118L19.0999 0.13808L19.3171 0.11712L19.5346 0.0982699L19.7524 0.0815401L19.9704 0.0669501L21.1428 0L21.2097 5.64867L21.248 5.64823L21.4099 5.648L21.5718 5.64936L21.7337 5.65231L21.8958 5.65686L22.0578 5.663L22.2199 5.67072L22.382 5.68005L22.5441 5.69098L22.7061 5.70349L22.8682 5.71761L23.0301 5.73333L23.192 5.75065L23.3537 5.76956L23.5154 5.79007L23.6769 5.81218L23.8383 5.83588L23.9995 5.86119L24.1606 5.88809L24.3214 5.91658L24.4821 5.94667L24.6425 5.97835L24.8026 6.01163L24.9626 6.04649L25.1222 6.08294L25.2815 6.12097L25.4406 6.16059L25.5993 6.2018L25.7576 6.24458L25.9156 6.28894L26.0733 6.33487L26.2305 6.38237L26.3873 6.43144L26.5437 6.48208L26.6997 6.53428L26.8552 6.58803L27.0102 6.64334L27.1648 6.70019L27.3188 6.7586L27.4723 6.81854L27.6253 6.88003L27.7777 6.94305L27.9295 7.00759L28.0808 7.07366L28.2315 7.14125L28.3815 7.21035L28.5309 7.28095L28.6797 7.35306L28.8278 7.42667L28.9752 7.50177L29.1219 7.57835L29.2679 7.65641L29.4132 7.73595L29.5577 7.81695L29.7015 7.89941L29.8445 7.98332L29.9867 8.0687L30.1281 8.1555L30.2687 8.2437L30.4084 8.3334L30.5473 8.4244L30.6853 8.5169L30.8225 8.6108L30.9587 8.706L31.0941 8.8027L31.2285 8.9007L31.3619 9.0001L31.4945 9.1009L31.626 9.203L31.7566 9.3065L31.8861 9.4112L32.0147 9.5173L32.1422 9.6248L32.2687 9.7335L32.3942 9.8435L32.5186 9.9548L32.6418 10.0674L32.764 10.1813L32.8851 10.2964L33.0051 10.4127L33.1239 10.5303L33.2416 10.6491L33.3581 10.7692L33.4735 10.8904L33.5876 11.0128L33.7006 11.1364L33.8123 11.2612L33.9228 11.3871L34.0321 11.5142L34.1401 11.6424L34.2469 11.7717L34.3524 11.9022L34.4566 12.0337L34.5595 12.1663L34.6611 12.3L34.7614 12.4348L34.8603 12.5706L34.9579 12.7075L35.0541 12.8454L35.149 12.9842L35.2425 13.1241L35.3346 13.265L35.4253 13.4069L35.5145 13.5497L35.6024 13.6934L35.6888 13.8381L35.7738 13.9837L35.8573 14.1302L35.9394 14.2776L36.02 14.4259L36.0991 14.575L36.1767 14.725L36.2528 14.8758L36.3274 15.0274L36.4005 15.1799L36.4721 15.3331L36.5421 15.4871L36.6106 15.6419L36.6775 15.7974L36.7428 15.9537L36.8066 16.1106L36.8688 16.2683L36.9294 16.4266L36.9884 16.5857L37.0458 16.7453L37.1016 16.9057L37.1558 17.0666L37.2084 17.2282L37.2593 17.3903L37.3086 17.553L37.3562 17.7163L37.4022 17.8801L37.4465 18.0445L37.4892 18.2094L37.5301 18.3747L37.5695 18.5406L37.6071 18.7069L37.643 18.8737L37.6773 19.0408L37.7098 19.2085L37.7406 19.3765L37.7698 19.5449L37.7972 19.7136L37.8229 19.8827L37.8469 20.0522L37.8691 20.2219L37.8896 20.392L37.9084 20.5623L37.9254 20.7329L37.9407 20.9037L37.9543 21.0748L37.9661 21.2461L37.9761 21.4176L37.9844 21.5892L37.991 21.7611L37.9957 21.933L37.9988 22.1051L38 22.2773L37.9995 22.4496L37.9972 22.622L37.9931 22.7945L37.9873 22.9669L37.9797 23.1394L37.9704 23.3119L37.9592 23.4844L37.9463 23.6569L37.9316 23.8293L37.9151 24.0017L37.8969 24.174L37.8768 24.3461L37.855 24.5182L37.8315 24.6901L37.8061 24.8619L37.779 25.0335L37.7501 25.2049L37.7194 25.3761L37.687 25.5471L37.6528 25.7179L37.6168 25.8884L37.579 26.0586L37.5395 26.2286L37.4983 26.3982L37.4552 26.5675L37.4104 26.7364L37.3639 26.905L37.3156 27.0732L37.2656 27.241L37.2138 27.4085L37.1602 27.5754L37.105 27.742L37.048 27.908L36.9892 28.0736L36.9288 28.2387L36.8666 28.4032L36.8027 28.5672L36.7371 28.7307L36.6698 28.8936L36.6008 29.0559L36.5301 29.2177L36.4577 29.3787L36.3836 29.5392L36.3078 29.699L36.2304 29.8581L36.1512 30.0166L36.0705 30.1743L35.988 30.3314L35.904 30.4876L35.8182 30.6432L35.7309 30.7979L35.6419 30.9519L35.5513 31.1051L35.4591 31.2574L35.3653 31.409L35.2698 31.5596L35.1728 31.7094L35.0743 31.8583L34.9741 32.0063L34.8724 32.1534L34.7691 32.2996L34.6643 32.4448L34.5579 32.5891L34.45 32.7324L34.3406 32.8747L34.2297 33.0159L34.1173 33.1562L34.0034 33.2954L33.888 33.4335L33.7711 33.5706L33.6528 33.7066L33.533 33.8415L33.4118 33.9753L33.2892 34.108L33.1652 34.2395L33.0397 34.3699L32.9129 34.499L32.7846 34.627L32.655 34.7538L32.5241 34.8794L32.3918 35.0038L32.2582 35.1269L32.1232 35.2488L31.9869 35.3693L31.8494 35.4886L31.7105 35.6067L31.5704 35.7234L31.429 35.8387L31.2864 35.9528L31.1425 36.0655L30.9974 36.1768L30.8511 36.2867L30.7036 36.3953L30.555 36.5025L30.4051 36.6082L30.2541 36.7126L30.102 36.8155L29.9488 36.9169L29.7944 37.0169L29.639 37.1155L29.4825 37.2125L29.3249 37.3081L29.1662 37.4021L29.0065 37.4947L28.8459 37.5857L28.6841 37.6751L28.5215 37.7631L28.3578 37.8494L28.1932 37.9342L28.0276 38.0175L27.8611 38.0991L27.6937 38.1791L27.5254 38.2576L27.3562 38.3344L27.1862 38.4096L27.0153 38.4831L26.8436 38.555L26.6711 38.6253L26.4978 38.6939L26.3237 38.7608L26.1488 38.8261L25.9732 38.8896L25.7968 38.9515L25.6198 39.0116L25.4421 39.0701L25.2636 39.1268L25.0845 39.1818L24.9048 39.2351L24.7245 39.2866L24.5435 39.3364L24.362 39.3845L24.1798 39.4307L23.9972 39.4752L23.814 39.518L23.6302 39.5589L23.446 39.5981L23.2613 39.6355L23.0761 39.6711L22.8905 39.7049L22.7045 39.7368L22.518 39.767L22.3312 39.7954L22.1439 39.8219L21.9564 39.8466L21.7685 39.8695L21.5802 39.8905L21.3917 39.9097L21.2029 39.9271L21.0139 39.9426L20.8246 39.9563L20.6351 39.9681L20.4453 39.9781L20.2554 39.9862L20.0654 39.9924L19.8751 39.9968L19.6848 39.9993L19.4943 40L19.3038 39.9988L19.1132 39.9957L18.9225 39.9908L18.7318 39.9839L18.5411 39.9752L18.3504 39.9647L18.1598 39.9522L17.9691 39.9379L17.7786 39.9217L17.5881 39.9036L17.3977 39.8837L17.2075 39.8619L17.0174 39.8382L16.8274 39.8126L16.6377 39.7851L16.4481 39.7558L16.2588 39.7246L16.0697 39.6916L15.8808 39.6566L15.6923 39.6198L15.504 39.5812L15.3161 39.5406L15.1284 39.4982L14.9412 39.454L14.7543 39.4079L14.5678 39.3599L14.3817 39.3101L14.1961 39.2585L14.0109 39.205L13.8261 39.1497L13.6419 39.0925L13.4582 39.0335L13.275 38.9727L13.0923 38.91L12.9102 38.8455L12.7287 38.7793L12.5478 38.7112L12.3675 38.6413L12.1879 38.5696L12.0089 38.4961L11.8306 38.4208L11.653 38.3438L11.4761 38.265L11.2999 38.1844L11.1245 38.102L10.9499 38.0179L10.7761 37.932L10.603 37.8444L10.4308 37.7551L10.2595 37.664L10.0889 37.5713L9.9193 37.4768L9.7506 37.3806L9.5828 37.2827L9.4159 37.1831L9.25 37.0819L9.085 36.9789L8.921 36.8744L8.7581 36.7681L8.5961 36.6603L8.4352 36.5507L8.2754 36.4396L8.1166 36.3269L7.95891 36.2125L7.80233 36.0966L7.64687 35.979L7.49256 35.8599L7.3394 35.7393L7.18741 35.617L7.03662 35.4933L6.88703 35.368L6.73866 35.2412L6.59153 35.1129L6.44566 34.983L6.30106 34.8517L6.15775 34.719L6.01573 34.5847L5.87504 34.4491L5.73568 34.3119L5.59766 34.1734L5.46101 34.0335L5.32574 33.8921L5.19186 33.7494L5.05939 33.6053L4.92835 33.4598L4.79874 33.313L4.67058 33.1649L4.54389 33.0154L4.41868 32.8647L4.29497 32.7126L4.17276 32.5593L4.05208 32.4047L3.93293 32.2489L3.81533 32.0918L3.69929 31.9335L3.58483 31.774L3.47195 31.6133L3.36068 31.4515L3.25102 31.2885L3.14299 31.1243L3.0366 30.9591L2.93185 30.7927L2.82877 30.6252L2.72737 30.4567L2.62765 30.287L2.52964 30.1164L2.43333 29.9447L2.33874 29.772L2.24589 29.5982L2.15477 29.4235L2.06542 29.2479L1.97782 29.0713L1.89201 28.8938L1.80798 28.7153L1.72574 28.536L1.64531 28.3557L1.56669 28.1747L1.4899 27.9927L1.41495 27.81L1.34183 27.6264L1.27057 27.442L1.20118 27.2569L1.13365 27.071L1.068 26.8844L1.00423 26.6971L0.94236 26.509L0.8824 26.3203L0.82434 26.1309L0.76821 25.9409L0.714 25.7502L0.66172 25.5589L0.61138 25.3671L0.56299 25.1747L0.51655 24.9817L0.47208 24.7882L0.42957 24.5941L0.38903 24.3996L0.35047 24.2046L0.31389 24.0092L0.2793 23.8133L0.24671 23.617L0.21611 23.4203L0.18752 23.2232L0.16094 23.0257L0.13638 22.8279L0.11383 22.6298L0.0933001 22.4314L0.0748 22.2328L0.0583301 22.0338L0.04389 21.8346L0.0314901 21.6352L0.0211301 21.4356L0.01281 21.2358L0.00653005 21.0359L0.00230002 20.8358L0.000129938 20.6356L0 20.4353ZM19.3781 5.76699L19.3325 1.91679L19.2892 1.92097L19.0904 1.94213L18.8921 1.96521L18.6939 1.99025L18.4965 2.01715L18.2993 2.04601L18.1023 2.0768L17.9059 2.10948L17.7097 2.14411L17.5145 2.18054L17.319 2.21901L17.1249 2.25921L16.9305 2.30144L16.7371 2.34546L16.5439 2.39144L16.3516 2.43918L16.1598 2.48884L15.9685 2.54035L15.7778 2.59372L15.588 2.64888L15.3985 2.70594L15.21 2.76477L15.022 2.82547L14.835 2.88785L14.6483 2.9522L14.4626 3.01827L14.2778 3.08609L14.0935 3.15576L13.9102 3.22713L13.7279 3.30022L13.5461 3.37519L13.3652 3.45186L13.1852 3.53028L13.0062 3.61035L12.8281 3.69216L12.651 3.77562L12.4745 3.86092L12.2993 3.94778L12.125 4.03633L11.9517 4.12655L11.7794 4.21844L11.6083 4.3119L11.4379 4.40709L11.2686 4.50393L11.1008 4.60215L10.9335 4.70229L10.7678 4.80376L10.6032 4.90681L10.4394 5.01155L10.2769 5.11782L10.1156 5.22564L9.9558 5.33473L9.7966 5.44575L9.639 5.55796L9.4826 5.67172L9.3273 5.78704L9.1734 5.90373L9.0209 6.02182L8.8693 6.14157L8.7194 6.26246L8.5706 6.38494L8.4232 6.50875L8.2771 6.634L8.1325 6.76045L7.98898 6.8885L7.8471 7.01769L7.70643 7.14837L7.56739 7.28015L7.42962 7.41336L7.29338 7.54777L7.15853 7.68351L7.02499 7.82065L6.8932 7.95873L6.76289 8.098L6.63374 8.2389L6.50638 8.3807L6.38058 8.5235L6.25607 8.6678L6.13337 8.813L6.01203 8.9595L5.89232 9.107L5.77418 9.2557L5.65758 9.4054L5.5427 9.5561L5.42932 9.7079L5.3175 9.8609L5.20748 10.0146L5.09893 10.1696L4.99211 10.3254L4.88694 10.4822L4.78335 10.64L4.68151 10.7987L4.58134 10.9582L4.48285 11.1187L4.38612 11.28L4.29098 11.4423L4.19755 11.6055L4.10596 11.7693L4.01601 11.934L3.92778 12.0996L3.84134 12.2659L3.7566 12.433L3.67368 12.6007L3.59249 12.7692L3.51309 12.9384L3.43542 13.1084L3.35959 13.2789L3.28548 13.4502L3.21318 13.6221L3.14273 13.7945L3.07404 13.9676L3.00715 14.1413L2.9421 14.3155L2.87885 14.4903L2.81747 14.6655L2.75786 14.8414L2.7001 15.0177L2.64419 15.1945L2.59013 15.3716L2.53787 15.5494L2.4875 15.7274L2.43897 15.9059L2.39228 16.0847L2.34745 16.264L2.30449 16.4435L2.26339 16.6234L2.22415 16.8036L2.18678 16.9841L2.15128 17.1648L2.11764 17.3458L2.08588 17.527L2.05599 17.7085L2.02798 17.8901L2.00184 18.0719L1.97758 18.2539L1.95519 18.436L1.93468 18.6182L1.91605 18.8006L1.8993 18.983L1.88442 19.1654L1.87142 19.348L1.8603 19.5306L1.85105 19.7131L1.84368 19.8957L1.83818 20.0782L1.83456 20.2607L1.8328 20.4431L1.83292 20.6255L1.8349 20.8077L1.83875 20.9899L1.84446 21.1719L1.85203 21.3537L1.86147 21.5354L1.87275 21.7168L1.88589 21.8981L1.90088 22.0791L1.91772 22.2599L1.93639 22.4405L1.95691 22.6207L1.97926 22.8007L2.00344 22.9803L2.02945 23.1596L2.05729 23.3386L2.08693 23.5171L2.1184 23.6953L2.15167 23.8731L2.18674 24.0504L2.22361 24.2274L2.26227 24.4038L2.30272 24.5798L2.34495 24.7553L2.38895 24.9303L2.43473 25.1048L2.48225 25.2786L2.53155 25.452L2.58259 25.6248L2.63537 25.797L2.68989 25.9686L2.74612 26.1395L2.80408 26.3098L2.86376 26.4794L2.92514 26.6484L2.9882 26.8166L3.05299 26.9842L3.11942 27.151L3.18753 27.3171L3.25732 27.4824L3.32875 27.6469L3.40184 27.8107L3.47656 27.9737L3.55291 28.1358L3.63087 28.2971L3.71045 28.4575L3.79162 28.6171L3.87439 28.7758L3.95873 28.9336L4.04465 29.0905L4.13212 29.2464L4.22114 29.4014L4.3117 29.5555L4.4038 29.7085L4.49737 29.8606L4.59251 30.0117L4.6891 30.1617L4.7872 30.3108L4.88677 30.4588L4.98778 30.6057L5.09024 30.7516L5.19417 30.8964L5.29949 31.0401L5.40626 31.1827L5.51438 31.3241L5.62395 31.4644L5.73483 31.6035L5.84711 31.7415L5.96077 31.8784L6.0757 32.014L6.192 32.1484L6.30959 32.2816L6.42852 32.4136L6.5487 32.5443L6.67013 32.6738L6.79285 32.802L6.9168 32.929L7.04202 33.0547L7.16842 33.179L7.29606 33.3021L7.42484 33.4238L7.55481 33.5443L7.68598 33.6634L7.81827 33.7811L7.95162 33.8974L8.0862 34.0124L8.2219 34.126L8.3585 34.2382L8.4964 34.3491L8.6352 34.4584L8.7751 34.5664L8.916 34.673L9.058 34.7781L9.2009 34.8817L9.3448 34.9839L9.4896 35.0846L9.6355 35.1839L9.7822 35.2816L9.93 35.3779L10.0785 35.4727L10.228 35.5659L10.3784 35.6577L10.5295 35.7479L10.6816 35.8366L10.8344 35.9237L10.9881 36.0093L11.1425 36.0933L11.2978 36.1758L11.4537 36.2567L11.6104 36.3361L11.7679 36.4138L11.9261 36.49L12.0849 36.5646L12.2444 36.6376L12.4045 36.7089L12.5654 36.7787L12.7268 36.8468L12.8889 36.9134L13.0515 36.9783L13.2147 37.0415L13.3785 37.1032L13.5427 37.1632L13.7075 37.2215L13.8729 37.2782L14.0387 37.3333L14.205 37.3867L14.3716 37.4384L14.5389 37.4885L14.7064 37.5369L14.8744 37.5836L15.0428 37.6287L15.2115 37.6721L15.3806 37.7138L15.5499 37.7538L15.7197 37.7922L15.8897 37.8288L16.0599 37.8638L16.2305 37.8971L16.4013 37.9287L16.5723 37.9586L16.7435 37.9868L16.9149 38.0133L17.0865 38.0381L17.2583 38.0612L17.4301 38.0827L17.6021 38.1024L17.7742 38.1204L17.9464 38.1368L18.1187 38.1514L18.291 38.1644L18.4633 38.1756L18.6357 38.1852L18.808 38.193L18.9803 38.1992L19.1526 38.2037L19.3249 38.2064L19.497 38.2075L19.6691 38.2069L19.8411 38.2046L20.0129 38.2007L20.1846 38.195L20.3562 38.1877L20.5276 38.1787L20.6987 38.168L20.8697 38.1557L21.0405 38.1417L21.211 38.126L21.3812 38.1086L21.5512 38.0896L21.7208 38.069L21.8902 38.0467L22.0592 38.0227L22.2279 37.9971L22.3962 37.9699L22.5642 37.941L22.7318 37.9105L22.8989 37.8784L23.0656 37.8447L23.2319 37.8093L23.3977 37.7724L23.563 37.7338L23.7279 37.6936L23.8922 37.6519L24.056 37.6085L24.2192 37.5636L24.382 37.5171L24.5441 37.469L24.7057 37.4194L24.8666 37.3683L25.027 37.3155L25.1867 37.2613L25.3456 37.2055L25.5041 37.1481L25.6618 37.0893L25.8188 37.0289L25.9751 36.9671L26.1306 36.9038L26.2854 36.8389L26.4395 36.7726L26.5928 36.7048L26.7452 36.6356L26.897 36.5649L27.0479 36.4927L27.1979 36.4192L27.3472 36.3441L27.4955 36.2677L27.643 36.1899L27.7897 36.1106L27.9353 36.03L28.0801 35.948L28.2239 35.8647L28.367 35.7799L28.5088 35.6939L28.65 35.6064L28.7899 35.5177L28.9289 35.4276L29.067 35.3362L29.2041 35.2434L29.3399 35.1496L29.4748 35.0543L29.6087 34.9578L29.7415 34.8601L29.8733 34.761L30.0038 34.6609L30.1335 34.5593L30.2618 34.4567L30.389 34.3529L30.5153 34.2478L30.6403 34.1415L30.764 34.0342L30.8867 33.9256L31.0081 33.816L31.1284 33.7052L31.2475 33.5933L31.3652 33.4804L31.4819 33.3662L31.5973 33.251L31.7114 33.1348L31.8243 33.0175L31.9358 32.8993L32.046 32.7801L32.1552 32.6595L32.2628 32.5383L32.3693 32.4159L32.4743 32.2927L32.5781 32.1684L32.6805 32.0433L32.7815 31.9172L32.8813 31.7901L32.9796 31.6623L33.0767 31.5334L33.1722 31.4038L33.2665 31.2732L33.3595 31.1417L33.4507 31.0097L33.5408 30.8766L33.6293 30.7429L33.7165 30.6082L33.8024 30.4727L33.8866 30.3367L33.9694 30.1999L34.0509 30.062L34.1307 29.9239L34.2092 29.7848L34.2863 29.645L34.3617 29.5048L34.4358 29.3636L34.5084 29.2218L34.5793 29.0799L34.6489 28.9368L34.717 28.7932L34.7835 28.6492L34.8485 28.5046L34.912 28.3594L34.9739 28.2138L35.0344 28.0674L35.0933 27.9206L35.1506 27.7737L35.2064 27.6257L35.2606 27.4777L35.3134 27.329L35.3646 27.18L35.4142 27.0305L35.4621 26.881L35.5087 26.7304L35.5535 26.58L35.5968 26.4291L35.6386 26.278L35.6788 26.1263L35.7173 25.9746L35.7544 25.8224L35.7898 25.6699L35.8237 25.5173L35.856 25.3643L35.8866 25.2114L35.9157 25.0578L35.9432 24.9046L35.9691 24.7508L35.9934 24.5969L36.0161 24.443L36.0373 24.2888L36.0568 24.1348L36.0748 23.9801L36.0911 23.826L36.1059 23.6714L36.119 23.5171L36.1306 23.3623L36.1406 23.2081L36.149 23.0534L36.1558 22.8986L36.161 22.7442L36.1647 22.5901L36.1667 22.4354L36.1672 22.281L36.1661 22.1268L36.1634 21.9727L36.1591 21.8186L36.1532 21.6651L36.1458 21.511L36.1368 21.3576L36.1262 21.2042L36.1141 21.0513L36.1004 20.8981L36.0852 20.7456L36.0684 20.593L36.05 20.4409L36.0301 20.2889L36.0087 20.1374L35.9856 19.9858L35.9611 19.8349L35.9351 19.6845L35.9075 19.534L35.8783 19.384L35.8477 19.2346L35.8155 19.0851L35.782 18.9367L35.7467 18.7881L35.7102 18.6405L35.6719 18.4927L35.6323 18.346L35.5912 18.1995L35.5486 18.0533L35.5046 17.908L35.4591 17.7632L35.412 17.6185L35.3637 17.4749L35.3137 17.3314L35.2625 17.1888L35.2097 17.0465L35.1556 16.9052L35.0999 16.7641L35.0429 16.6238L34.9846 16.4844L34.9249 16.3456L34.8635 16.207L34.8012 16.0697L34.7371 15.9325L34.6719 15.7966L34.6053 15.6612L34.5372 15.5263L34.468 15.3925L34.3973 15.2593L34.3252 15.1267L34.2522 14.9954L34.1775 14.8644L34.1017 14.7345L34.0244 14.6052L33.9462 14.4772L33.8663 14.3495L33.7855 14.223L33.7032 14.0971L33.6198 13.9723L33.5353 13.8486L33.4493 13.7254L33.3622 13.6033L33.274 13.4821L33.1845 13.362L33.0939 13.2426L33.0021 13.1244L32.9092 13.007L32.8151 12.8907L32.7199 12.7754L32.6235 12.661L32.526 12.5477L32.4275 12.4354L32.328 12.3242L32.2273 12.214L32.1253 12.1047L32.0228 11.9969L31.9186 11.8897L31.8139 11.784L31.708 11.6791L31.6012 11.5755L31.493 11.4727L31.3844 11.3715L31.2744 11.2711L31.1635 11.1719L31.052 11.074L30.9394 10.9772L30.8255 10.8813L30.711 10.7868L30.5957 10.6935L30.4794 10.6014L30.3622 10.5104L30.2444 10.4209L30.1253 10.3321L30.0058 10.245L29.8853 10.159L29.7639 10.0741L29.642 9.9906L29.5188 9.9081L29.3956 9.8273L29.271 9.7474L29.146 9.6689L29.02 9.5916L28.8935 9.5156L28.7663 9.441L28.6386 9.3678L28.5097 9.2955L28.3808 9.2249L28.2508 9.1554L28.1203 9.0873L27.9893 9.0206L27.8575 8.9551L27.7252 8.8909L27.5924 8.8282L27.4589 8.7667L27.3251 8.7067L27.1906 8.6479L27.0513 8.5887L26.9203 8.5346L26.784 8.4798L26.6479 8.4267L26.5107 8.3746L26.3735 8.3242L26.2357 8.275L26.0976 8.2273L25.9589 8.1808L25.8201 8.1359L25.6807 8.0923L25.541 8.0501L25.4012 8.0094L25.2608 7.96996L25.1199 7.93188L24.9792 7.89535L24.8382 7.86021L24.6963 7.82636L24.5549 7.79407L24.4128 7.76307L24.2707 7.73357L24.1281 7.70541L23.9857 7.67873L23.8429 7.65343L23.7002 7.6296L23.5568 7.6071L23.4138 7.58609L23.2705 7.56647L23.127 7.54826L22.9835 7.53148L22.84 7.51614L22.6964 7.5022L22.5527 7.48968L22.4089 7.47857L22.265 7.46887L22.1215 7.46061L21.9779 7.45376L21.8338 7.44831L21.6905 7.44429L21.5469 7.44167L21.4034 7.44047L21.2597 7.44067L21.2309 7.441L21.2762 11.2632L21.3577 11.2628L21.4626 11.2634L21.5675 11.265L21.6725 11.2677L21.7776 11.2714L21.8827 11.2762L21.9878 11.282L22.093 11.2888L22.1982 11.2967L22.3034 11.3056L22.4086 11.3156L22.5137 11.3266L22.6189 11.3387L22.724 11.3518L22.829 11.3659L22.934 11.3812L23.0389 11.3974L23.1437 11.4147L23.2485 11.4331L23.3531 11.4525L23.4576 11.473L23.562 11.4945L23.6663 11.517L23.7704 11.5406L23.8743 11.5653L23.9781 11.591L24.0816 11.6177L24.185 11.6455L24.2882 11.6743L24.3912 11.7042L24.494 11.7351L24.5965 11.767L24.6987 11.8L24.8007 11.834L24.9025 11.8691L25.0039 11.9052L25.1051 11.9423L25.2059 11.9804L25.3065 12.0196L25.4067 12.0598L25.5066 12.101L25.6061 12.1433L25.7053 12.1865L25.8041 12.2308L25.9025 12.276L26.0005 12.3223L26.0982 12.3696L26.1954 12.4179L26.2922 12.4672L26.3886 12.5175L26.4845 12.5687L26.58 12.621L26.675 12.6742L26.7695 12.7284L26.8636 12.7836L26.9572 12.8398L27.0502 12.8969L27.1427 12.955L27.2347 13.0141L27.3262 13.0741L27.4171 13.135L27.5075 13.1969L27.5973 13.2598L27.6865 13.3235L27.7751 13.3882L27.8631 13.4539L27.9506 13.5204L28.0373 13.5879L28.1235 13.6563L28.209 13.7255L28.2939 13.7957L28.3781 13.8668L28.4617 13.9387L28.5446 14.0115L28.6268 14.0852L28.7083 14.1598L28.789 14.2352L28.8691 14.3115L28.9484 14.3886L29.027 14.4666L29.1049 14.5454L29.182 14.6251L29.2584 14.7055L29.3339 14.7868L29.4087 14.8689L29.4827 14.9518L29.5559 15.0354L29.6283 15.1199L29.6999 15.2051L29.7707 15.2911L29.8406 15.3779L29.9097 15.4654L29.9779 15.5537L30.0453 15.6427L30.1118 15.7325L30.1774 15.8229L30.2422 15.9141L30.306 16.006L30.369 16.0986L30.431 16.1919L30.4921 16.2858L30.5523 16.3805L30.6116 16.4758L30.67 16.5717L30.7274 16.6683L30.7838 16.7656L30.8393 16.8634L30.8938 16.9619L30.9473 17.061L30.9999 17.1607L31.0515 17.261L31.102 17.3619L31.1516 17.4634L31.2002 17.5654L31.2477 17.6679L31.2942 17.7711L31.3397 17.8747L31.3842 17.9789L31.4276 18.0836L31.47 18.1888L31.5113 18.2945L31.5515 18.4006L31.5907 18.5073L31.6288 18.6144L31.6659 18.722L31.7019 18.83L31.7367 18.9385L31.7705 19.0473L31.8032 19.1566L31.8348 19.2663L31.8653 19.3764L31.8946 19.4869L31.9229 19.5977L31.95 19.7089L31.976 19.8204L32.0009 19.9323L32.0246 20.0445L32.0472 20.157L32.0686 20.2698L32.0889 20.383L32.1081 20.4964L32.1261 20.61L32.1429 20.724L32.1586 20.8381L32.1731 20.9525L32.1865 21.0672L32.1986 21.1821L32.2096 21.2971L32.2195 21.4124L32.2281 21.5278L32.2356 21.6434L32.2418 21.7591L32.2469 21.875L32.2508 21.9911L32.2535 22.1072L32.255 22.2235L32.2553 22.3399L32.2544 22.4563L32.2523 22.5728L32.249 22.6894L32.2445 22.8061L32.2388 22.9227L32.2319 23.0394L32.2238 23.1562L32.2145 23.2729L32.2039 23.3896L32.1922 23.5063L32.1792 23.6229L32.1651 23.7396L32.1497 23.8561L32.1331 23.9726L32.1153 24.089L32.0963 24.2053L32.0761 24.3215L32.0546 24.4376L32.032 24.5536L32.0081 24.6694L31.983 24.7851L31.9568 24.9006L31.9293 25.0159L31.9006 25.131L31.8707 25.246L31.8396 25.3607L31.8073 25.4752L31.7738 25.5894L31.7391 25.7034L31.7032 25.8172L31.666 25.9307L31.6277 26.0438L31.5882 26.1567L31.5476 26.2693L31.5057 26.3815L31.4626 26.4934L31.4184 26.605L31.373 26.7162L31.3264 26.8271L31.2786 26.9375L31.2297 27.0476L31.1796 27.1573L31.1283 27.2665L31.0759 27.3753L31.0223 27.4837L30.9675 27.5916L30.9116 27.6991L30.8546 27.806L30.7964 27.9125L30.7371 28.0185L30.6767 28.124L30.6151 28.2289L30.5524 28.3334L30.4886 28.4372L30.4237 28.5406L30.3576 28.6433L30.2905 28.7455L30.2222 28.847L30.1529 28.948L30.0825 29.0484L30.011 29.1481L29.9384 29.2472L29.8648 29.3457L29.7901 29.4435L29.7143 29.5406L29.6375 29.637L29.5596 29.7328L29.4807 29.8278L29.4008 29.9222L29.3198 30.0158L29.2378 30.1087L29.1548 30.2008L29.0708 30.2922L28.9858 30.3828L28.8999 30.4727L28.8129 30.5617L28.725 30.65L28.636 30.7374L28.5462 30.8241L28.4553 30.9099L28.3636 30.9948L28.2709 31.079L28.1772 31.1622L28.0827 31.2446L27.9872 31.3262L27.8909 31.4068L27.7936 31.4866L27.6955 31.5654L27.5964 31.6433L27.4965 31.7203L27.3958 31.7964L27.2942 31.8715L27.1917 31.9457L27.0885 32.019L26.9844 32.0912L26.8795 32.1625L26.7737 32.2328L26.6672 32.3021L26.5599 32.3704L26.4519 32.4377L26.343 32.5039L26.2335 32.5692L26.1231 32.6334L26.0121 32.6965L25.9003 32.7586L25.7878 32.8197L25.6746 32.8797L25.5607 32.9386L25.4461 32.9964L25.3309 33.0531L25.215 33.1088L25.0984 33.1633L24.9812 33.2167L24.8634 33.269L24.745 33.3202L24.6259 33.3702L24.5063 33.4191L24.3861 33.4669L24.2653 33.5135L24.144 33.559L24.0221 33.6033L23.8997 33.6464L23.7767 33.6883L23.6533 33.7291L23.5293 33.7686L23.4049 33.807L23.28 33.8442L23.1546 33.8801L23.0288 33.9149L22.9025 33.9484L22.7758 33.9807L22.6487 34.0118L22.5212 34.0417L22.3932 34.0703L22.265 34.0977L22.1363 34.1238L22.0073 34.1487L21.878 34.1724L21.7483 34.1948L21.6183 34.2159L21.4881 34.2357L21.3575 34.2543L21.2266 34.2716L21.0955 34.2877L20.9642 34.3024L20.8326 34.3159L20.7008 34.3281L20.5688 34.339L20.4366 34.3486L20.3042 34.3569L20.1716 34.3639L20.0389 34.3696L19.906 34.374L19.773 34.3771L19.6399 34.3789L19.5066 34.3794L19.3733 34.3786L19.24 34.3764L19.1065 34.373L18.973 34.3682L18.8395 34.3621L18.7059 34.3547L18.5724 34.346L18.4388 34.336L18.3053 34.3246L18.1718 34.3119L18.0383 34.2979L17.9049 34.2826L17.7716 34.266L17.6383 34.248L17.5052 34.2287L17.3722 34.2081L17.2393 34.1862L17.1065 34.1629L16.9739 34.1384L16.8415 34.1125L16.7093 34.0852L16.5772 34.0567L16.4454 34.0269L16.3138 33.9957L16.1824 33.9632L16.0513 33.9294L15.9204 33.8943L15.7898 33.8579L15.6596 33.8202L15.5296 33.7812L15.3999 33.7409L15.2706 33.6992L15.1417 33.6563L15.013 33.6121L14.8848 33.5666L14.757 33.5198L14.6295 33.4717L14.5025 33.4223L14.3759 33.3717L14.2497 33.3197L14.124 33.2665L13.9988 33.2121L13.8741 33.1563L13.7498 33.0993L13.6261 33.0411L13.5029 32.9816L13.3802 32.9208L13.258 32.8588L13.1365 32.7956L13.0155 32.7311L12.8951 32.6654L12.7753 32.5985L12.6561 32.5303L12.5375 32.461L12.4196 32.3904L12.3023 32.3186L12.1857 32.2457L12.0698 32.1715L11.9546 32.0962L11.8401 32.0196L11.7263 31.9419L11.6132 31.8631L11.5009 31.7831L11.3893 31.7019L11.2785 31.6196L11.1684 31.5361L11.0592 31.4515L10.9508 31.3658L10.8432 31.2789L10.7364 31.191L10.6304 31.1019L10.5253 31.0118L10.4211 30.9205L10.3177 30.8282L10.2152 30.7348L10.1137 30.6404L10.013 30.5449L9.9132 30.4483L9.8144 30.3507L9.7166 30.2521L9.6197 30.1524L9.5237 30.0518L9.4287 29.9501L9.3348 29.8475L9.2418 29.7438L9.1498 29.6392L9.0589 29.5336L8.9689 29.4271L8.8801 29.3196L8.7922 29.2111L8.7055 29.1018L8.6198 28.9915L8.5352 28.8803L8.4517 28.7682L8.3692 28.6553L8.2879 28.5414L8.2078 28.4267L8.1287 28.3111L8.0508 28.1947L7.97406 28.0775L7.89847 27.9594L7.82404 27.8405L7.7508 27.7208L7.67874 27.6003L7.60788 27.4791L7.53822 27.357L7.46977 27.2343L7.40255 27.1107L7.33656 26.9865L7.2718 26.8615L7.20829 26.7358L7.14604 26.6094L7.08505 26.4823L7.02533 26.3546L6.96689 26.2261L6.90973 26.0971L6.85387 25.9674L6.79931 25.837L6.74605 25.7061L6.69412 25.5746L6.6435 25.4424L6.59421 25.3097L6.54625 25.1765L6.49964 25.0426L6.45438 24.9083L6.41047 24.7734L6.36792 24.638L6.32674 24.5022L6.28693 24.3658L6.2485 24.229L6.21145 24.0917L6.1758 23.9539L6.14154 23.8158L6.10867 23.6772L6.07722 23.5382L6.04717 23.3988L6.01854 23.2591L5.99133 23.119L5.96554 22.9785L5.94118 22.8377L5.91826 22.6966L5.89677 22.5552L5.87672 22.4135L5.85812 22.2715L5.84097 22.1292L5.82527 21.9867L5.81102 21.844L5.79823 21.701L5.78691 21.5578L5.77705 21.4145L5.76865 21.2709L5.76173 21.1272L5.75628 20.9834L5.75231 20.8394L5.74981 20.6953L5.74879 20.551L5.74926 20.4067L5.7512 20.2623L5.75464 20.1179L5.75955 19.9734L5.76596 19.8288L5.77386 19.6843L5.78324 19.5397L5.79412 19.3952L5.80648 19.2506L5.82034 19.1062L5.8357 18.9617L5.85254 18.8174L5.87088 18.6731L5.89071 18.5289L5.91203 18.3848L5.93485 18.2409L5.95915 18.0971L5.98495 17.9535L6.01224 17.81L6.04102 17.6667L6.07128 17.5237L6.10304 17.3808L6.13628 17.2382L6.171 17.0958L6.2072 16.9537L6.24489 16.8119L6.28405 16.6703L6.32469 16.5291L6.36681 16.3882L6.41039 16.2476L6.45545 16.1073L6.50197 15.9675L6.54995 15.828L6.5994 15.6889L6.6503 15.5502L6.70265 15.4119L6.75645 15.2741L6.8117 15.1367L6.86839 14.9998L6.92652 14.8634L6.98608 14.7274L7.04708 14.592L7.10949 14.4571L7.17333 14.3227L7.23858 14.1889L7.30525 14.0557L7.37332 13.923L7.44279 13.791L7.51365 13.6595L7.58591 13.5287L7.65955 13.3985L7.73456 13.2689L7.81095 13.1401L7.88871 13.0119L7.96782 12.8844L8.0483 12.7576L8.1301 12.6315L8.2133 12.5062L8.2977 12.3816L8.3836 12.2578L8.4707 12.1347L8.5591 12.0124L8.6489 11.891L8.7399 11.7703L8.8323 11.6505L8.9259 11.5315L9.0208 11.4134L9.1169 11.2962L9.2143 11.1798L9.313 11.0643L9.4129 10.9497L9.514 10.8361L9.6164 10.7234L9.7199 10.6116L9.8247 10.5008L9.9307 10.3909L10.0378 10.2821L10.1461 10.1742L10.2556 10.0673L10.3663 9.9615L10.4781 9.8566L10.591 9.7529L10.7051 9.6501L10.8203 9.5485L10.9365 9.4479L11.0539 9.3484L11.1724 9.25L11.2919 9.1527L11.4125 9.0565L11.5342 8.9615L11.6569 8.8676L11.7806 8.7749L11.9054 8.6833L12.0311 8.5929L12.1578 8.5037L12.2856 8.4157L12.4143 8.3289L12.5439 8.2434L12.6746 8.159L12.8061 8.0759L12.9386 7.99404L13.072 7.91343L13.2063 7.83409L13.3414 7.75603L13.4775 7.67925L13.6144 7.60376L13.7521 7.52959L13.8907 7.45673L14.0301 7.38519L14.1703 7.31498L14.3113 7.24611L14.4531 7.17859L14.5957 7.11243L14.739 7.04763L14.8831 6.9842L15.0279 6.92216L15.1734 6.86151L15.3196 6.80225L15.4664 6.7444L15.614 6.68796L15.7622 6.63294L15.9111 6.57935L16.0606 6.52719L16.2107 6.47647L16.3614 6.4272L16.5126 6.37939L16.6645 6.33303L16.8169 6.28814L16.9699 6.24473L17.1233 6.20279L17.2773 6.16234L17.4318 6.12338L17.5868 6.08592L17.7422 6.04997L17.8981 6.01551L18.0544 5.98257L18.2111 5.95115L18.3683 5.92126L18.5258 5.89289L18.6837 5.86605L18.842 5.84075L19.0006 5.81699L19.1595 5.79478L19.3187 5.77411L19.3781 5.76699ZM19.4453 11.4361L19.3995 7.57189L19.269 7.59013L19.1287 7.61116L18.9883 7.63359L18.8488 7.6573L18.7091 7.68246L18.5701 7.70891L18.4314 7.73672L18.2932 7.76583L18.1553 7.79632L18.0177 7.82816L17.8805 7.86131L17.7439 7.89577L17.6074 7.93161L17.4763 7.9674L17.3366 8.0071L17.2017 8.0468L17.0674 8.0878L16.9338 8.13L16.8005 8.1736L16.6677 8.2185L16.5355 8.2646L16.404 8.3119L16.273 8.3606L16.1426 8.4104L16.0127 8.4616L15.8838 8.5139L15.7549 8.5676L15.627 8.6224L15.4997 8.6784L15.3733 8.7356L15.2472 8.7941L15.1218 8.8538L14.9975 8.9145L14.8734 8.9766L14.7506 9.0397L14.628 9.1042L14.5066 9.1695L14.3854 9.2364L14.2654 9.304L14.1462 9.3729L14.0276 9.443L13.9099 9.5141L13.7928 9.5865L13.6769 9.6597L13.5615 9.7342L13.4472 9.8097L13.3337 9.8862L13.221 9.9639L13.109 10.0427L12.9983 10.1222L12.8882 10.2031L12.779 10.2849L12.6708 10.3677L12.5636 10.4514L12.4571 10.5363L12.3518 10.622L12.2474 10.7087L12.1438 10.7966L12.0415 10.8851L11.9399 10.9748L11.8393 11.0654L11.7398 11.1568L11.6414 11.2491L11.5437 11.3425L11.4474 11.4365L11.352 11.5315L11.2575 11.6275L11.1642 11.7242L11.0719 11.8219L10.9807 11.9203L10.8906 12.0195L10.8015 12.1196L10.7134 12.2206L10.6268 12.3221L10.541 12.4246L10.4563 12.5279L10.3728 12.6318L10.2905 12.7364L10.2091 12.842L10.129 12.9481L10.05 13.055L9.9722 13.1626L9.8955 13.2709L9.8201 13.3797L9.7458 13.4893L9.6726 13.5996L9.6006 13.7105L9.5299 13.8219L9.4604 13.934L9.392 14.0469L9.3248 14.1601L9.2589 14.274L9.1941 14.3885L9.1307 14.5033L9.0684 14.6189L9.0072 14.7351L8.9475 14.8515L8.8889 14.9687L8.8316 15.0863L8.7755 15.2042L8.7207 15.3228L8.6671 15.4417L8.6148 15.5611L8.5637 15.6809L8.514 15.8011L8.4655 15.9217L8.4182 16.0428L8.3722 16.1642L8.3276 16.2859L8.2841 16.4081L8.2421 16.5304L8.2012 16.6532L8.1617 16.7763L8.1234 16.8997L8.0865 17.0233L8.0508 17.1472L8.0165 17.2713L7.98341 17.3958L7.95165 17.5204L7.9212 17.6453L7.89206 17.7704L7.86421 17.8956L7.83766 18.0211L7.81245 18.1467L7.78852 18.2724L7.7659 18.3984L7.74461 18.5244L7.7246 18.6506L7.70593 18.7767L7.68854 18.9031L7.67248 19.0295L7.65772 19.156L7.64427 19.2825L7.63213 19.4091L7.6213 19.5357L7.61178 19.6622L7.60356 19.7889L7.59664 19.9155L7.59103 20.042L7.58673 20.1685L7.58372 20.2949L7.58202 20.4213L7.58161 20.5477L7.5825 20.6739L7.58469 20.8L7.58817 20.926L7.59293 21.0518L7.59899 21.1776L7.60633 21.3032L7.61495 21.4285L7.62486 21.5538L7.63604 21.6788L7.6485 21.8036L7.66223 21.9282L7.67722 22.0526L7.69349 22.1768L7.71101 22.3006L7.7298 22.4243L7.74983 22.5475L7.77112 22.6706L7.79366 22.7934L7.81743 22.9157L7.84245 23.0379L7.86869 23.1596L7.89618 23.2811L7.92486 23.402L7.9548 23.5227L7.98594 23.643L8.0183 23.7629L8.0518 23.8823L8.0866 24.0014L8.1225 24.12L8.1597 24.2382L8.198 24.356L8.2375 24.4732L8.2782 24.5899L8.32 24.7062L8.363 24.822L8.4072 24.9373L8.4525 25.052L8.4989 25.1662L8.5465 25.2799L8.5952 25.393L8.6451 25.5055L8.696 25.6175L8.7481 25.7288L8.8013 25.8396L8.8555 25.9498L8.9109 26.0593L8.9673 26.1683L9.0248 26.2766L9.0834 26.3842L9.143 26.4912L9.2037 26.5975L9.2654 26.7031L9.3282 26.808L9.392 26.9123L9.4568 27.0158L9.5226 27.1186L9.5895 27.2208L9.6572 27.322L9.7261 27.4227L9.7958 27.5225L9.8666 27.6216L9.9383 27.7199L10.011 27.8174L10.0846 27.9141L10.1592 28.0101L10.2346 28.1052L10.311 28.1995L10.3883 28.293L10.4665 28.3857L10.5456 28.4774L10.6256 28.5685L10.7064 28.6585L10.7881 28.7478L10.8706 28.8361L10.954 28.9236L11.0382 29.0102L11.1233 29.0959L11.2091 29.1807L11.2958 29.2646L11.3833 29.3476L11.4714 29.4296L11.5605 29.5108L11.6502 29.5909L11.7407 29.6701L11.832 29.7484L11.924 29.8257L12.0167 29.9021L12.1101 29.9774L12.2042 30.0518L12.299 30.1252L12.3945 30.1977L12.4907 30.2691L12.5874 30.3395L12.6848 30.4089L12.7829 30.4773L12.8816 30.5447L12.981 30.6111L13.0809 30.6764L13.1814 30.7407L13.2825 30.804L13.3841 30.8662L13.4863 30.9274L13.5891 30.9875L13.6923 31.0465L13.7962 31.1045L13.9004 31.1614L14.0053 31.2173L14.1106 31.2721L14.2163 31.3257L14.3226 31.3784L14.4294 31.4299L14.5365 31.4804L14.644 31.5297L14.7521 31.578L14.8604 31.6251L14.9692 31.6711L15.0784 31.7161L15.188 31.7599L15.2978 31.8026L15.4081 31.8442L15.5187 31.8847L15.6296 31.9241L15.7408 31.9623L15.8524 31.9995L15.9642 32.0354L16.0763 32.0703L16.1887 32.104L16.3013 32.1366L16.4141 32.1681L16.5272 32.1984L16.6405 32.2277L16.754 32.2557L16.8677 32.2826L16.9816 32.3084L17.0957 32.3331L17.2099 32.3566L17.3242 32.3789L17.4388 32.4001L17.5533 32.4202L17.6681 32.4392L17.7829 32.4569L17.8978 32.4736L18.0128 32.4891L18.1278 32.5035L18.2429 32.5167L18.358 32.5288L18.4732 32.5397L18.5884 32.5495L18.7036 32.5581L18.8188 32.5657L18.9339 32.572L19.049 32.5773L19.1642 32.5814L19.2792 32.5844L19.3941 32.5862L19.509 32.5869L19.6238 32.5865L19.7385 32.5849L19.8531 32.5823L19.9675 32.5785L20.0819 32.5736L20.196 32.5675L20.31 32.5604L20.4238 32.5521L20.5375 32.5427L20.6509 32.5322L20.7642 32.5206L20.8773 32.5079L20.9901 32.4941L21.1027 32.4792L21.215 32.4633L21.3271 32.4462L21.4389 32.428L21.5503 32.4088L21.6616 32.3884L21.7725 32.367L21.8831 32.3446L21.9935 32.321L22.1033 32.2964L22.2129 32.2708L22.3221 32.244L22.431 32.2163L22.5395 32.1875L22.6476 32.1576L22.7553 32.1267L22.8626 32.0948L22.9694 32.0619L23.0758 32.0279L23.1819 31.9929L23.2874 31.9569L23.3925 31.9199L23.4971 31.8819L23.6012 31.8429L23.7048 31.8029L23.8079 31.7619L23.9106 31.7199L24.0127 31.677L24.1142 31.6331L24.2153 31.5883L24.3157 31.5425L24.4157 31.4957L24.5151 31.448L24.6137 31.3995L24.7121 31.3498L24.8096 31.2994L24.9067 31.2479L25.0029 31.1957L25.0987 31.1425L25.1939 31.0884L25.2883 31.0334L25.3822 30.9775L25.4754 30.9208L25.5678 30.8632L25.6598 30.8047L25.7508 30.7455L25.8413 30.6853L25.9312 30.6242L26.0202 30.5624L26.1084 30.4999L26.1962 30.4363L26.283 30.3722L26.3692 30.3071L26.4547 30.2412L26.5391 30.1747L26.6232 30.1072L26.7064 30.039L26.7885 29.9702L26.8703 29.9003L26.951 29.83L27.0309 29.759L27.1103 29.6869L27.1885 29.6145L27.2661 29.5412L27.3429 29.4672L27.4187 29.3926L27.4938 29.3172L27.5681 29.2412L27.6415 29.1645L27.7139 29.0872L27.7856 29.0092L27.8565 28.9306L27.9263 28.8515L27.9955 28.7715L28.0636 28.6911L28.1308 28.6101L28.1973 28.5283L28.2627 28.4463L28.3273 28.3634L28.391 28.2801L28.4538 28.1961L28.5156 28.1117L28.5764 28.0269L28.6365 27.9412L28.6955 27.8553L28.7536 27.7688L28.8109 27.6817L28.8669 27.5944L28.9223 27.5064L28.9766 27.4179L29.03 27.3291L29.0823 27.2398L29.1339 27.1499L29.1842 27.06L29.2338 26.9692L29.2823 26.8783L29.3297 26.787L29.3764 26.695L29.4218 26.6032L29.4665 26.5104L29.5099 26.4179L29.5527 26.3244L29.5941 26.2311L29.6348 26.137L29.6744 26.043L29.7129 25.9486L29.7505 25.8538L29.7871 25.7587L29.8225 25.6636L29.8572 25.5679L29.8906 25.4721L29.9231 25.3761L29.9546 25.2798L29.9851 25.1832L30.0146 25.0865L30.043 24.9897L30.0704 24.8925L30.0967 24.7953L30.1221 24.6978L30.1464 24.6002L30.1697 24.5026L30.192 24.4045L30.2132 24.3065L30.2335 24.2084L30.2526 24.1103L30.2708 24.012L30.2879 23.9133L30.304 23.815L30.3191 23.7164L30.3331 23.6177L30.3461 23.5192L30.3581 23.4205L30.3691 23.3215L30.379 23.2232L30.388 23.1241L30.3959 23.0254L30.4027 22.9269L30.4086 22.8281L30.4134 22.7295L30.4172 22.631L30.42 22.5322L30.4217 22.434L30.4225 22.3354L30.4222 22.2371L30.421 22.1388L30.4187 22.0409L30.4154 21.9428L30.4111 21.8449L30.4058 21.7474L30.3995 21.6496L30.3922 21.5521L30.384 21.4551L30.3747 21.3578L30.3644 21.2611L30.3531 21.1642L30.3409 21.0678L30.3277 20.9715L30.3135 20.8753L30.2983 20.7795L30.2822 20.684L30.2651 20.5887L30.247 20.4937L30.2279 20.3986L30.2079 20.3042L30.187 20.2101L30.1651 20.1161L30.1422 20.0223L30.1185 19.9293L30.0937 19.836L30.0681 19.7435L30.0415 19.6511L30.014 19.5593L29.9856 19.4676L29.9562 19.3763L29.926 19.2856L29.8949 19.1952L29.8627 19.1049L29.8299 19.0154L29.796 18.9261L29.7613 18.8374L29.7257 18.7489L29.6892 18.6608L29.6519 18.5735L29.6136 18.4863L29.5746 18.3998L29.5347 18.3138L29.4939 18.228L29.4522 18.1427L29.4099 18.0582L29.3665 17.9739L29.3225 17.8904L29.2776 17.8074L29.2318 17.7245L29.1854 17.6426L29.138 17.561L29.0899 17.4801L29.0409 17.3995L28.9914 17.3198L28.9408 17.2403L28.8897 17.1617L28.8377 17.0836L28.785 17.0061L28.7314 16.929L28.6772 16.8527L28.6224 16.7771L28.5666 16.7018L28.5103 16.6274L28.4531 16.5535L28.3955 16.4804L28.3369 16.4077L28.2777 16.3358L28.2178 16.2645L28.1573 16.1938L28.0962 16.124L28.0342 16.0546L27.9718 15.9861L27.9086 15.9181L27.845 15.8511L27.7804 15.7844L27.7155 15.7187L27.6497 15.6534L27.5835 15.5891L27.5168 15.5255L27.4494 15.4625L27.3813 15.4002L27.3127 15.3388L27.2436 15.2781L27.1737 15.2179L27.1038 15.1589L27.0329 15.1002L26.9616 15.0425L26.8898 14.9856L26.8174 14.9292L26.7446 14.8738L26.6715 14.8193L26.5975 14.7653L26.523 14.712L26.4485 14.6599L26.373 14.6082L26.2976 14.5577L26.2215 14.5077L26.1449 14.4585L26.0678 14.4101L25.9906 14.3627L25.9126 14.3159L25.8345 14.2701L25.7557 14.2249L25.677 14.1808L25.5976 14.1374L25.5178 14.0947L25.4377 14.0529L25.3574 14.0121L25.2766 13.9719L25.1954 13.9326L25.1141 13.8942L25.0326 13.8567L24.9502 13.8198L24.8682 13.784L24.7856 13.749L24.7026 13.7147L24.6195 13.6814L24.5363 13.649L24.4527 13.6174L24.3686 13.5865L24.2847 13.5567L24.2003 13.5276L24.1157 13.4994L24.0312 13.4721L23.9463 13.4457L23.8614 13.4201L23.7758 13.3953L23.6905 13.3715L23.605 13.3485L23.5193 13.3264L23.4335 13.3051L23.3473 13.2847L23.2613 13.2652L23.1753 13.2466L23.0889 13.2288L23.0023 13.2118L22.9162 13.1959L22.8295 13.1807L22.743 13.1664L22.6561 13.1529L22.5697 13.1404L22.4826 13.1286L22.3961 13.1179L22.3093 13.1079L22.2225 13.0988L22.1358 13.0906L22.0489 13.0832L21.9624 13.0767L21.8754 13.0711L21.7888 13.0663L21.7024 13.0624L21.6154 13.0593L21.5291 13.0571L21.4427 13.0558L21.3564 13.0553L21.2974 13.0555L21.3421 16.8309L21.3688 16.831L21.4184 16.8317L21.4681 16.8329L21.5179 16.8345L21.5677 16.8368L21.6176 16.8395L21.6675 16.8427L21.7175 16.8465L21.7675 16.8508L21.8176 16.8556L21.8677 16.8609L21.9178 16.8667L21.968 16.8731L22.0181 16.88L22.0683 16.8874L22.1185 16.8954L22.1687 16.9039L22.2188 16.9129L22.269 16.9225L22.3191 16.9325L22.3692 16.9432L22.4193 16.9543L22.4694 16.966L22.5193 16.9782L22.5693 16.9909L22.6192 17.0042L22.669 17.018L22.7188 17.0323L22.7685 17.0472L22.8181 17.0626L22.8676 17.0786L22.9171 17.0951L22.9664 17.1121L23.0157 17.1296L23.0648 17.1477L23.1138 17.1663L23.1627 17.1854L23.2115 17.2051L23.2601 17.2253L23.3086 17.246L23.357 17.2673L23.4052 17.2891L23.4533 17.3114L23.5012 17.3343L23.5489 17.3576L23.5965 17.3815L23.6438 17.406L23.691 17.4309L23.738 17.4564L23.7848 17.4824L23.8314 17.5089L23.8778 17.5359L23.9239 17.5634L23.9699 17.5915L24.0156 17.6201L24.0611 17.6492L24.1063 17.6787L24.1513 17.7088L24.1961 17.7395L24.2406 17.7706L24.2848 17.8022L24.3288 17.8343L24.3725 17.8669L24.4159 17.9L24.459 17.9336L24.5019 17.9677L24.5444 18.0023L24.5866 18.0373L24.6286 18.0729L24.6702 18.1089L24.7115 18.1454L24.7525 18.1824L24.7931 18.2199L24.8334 18.2578L24.8733 18.2962L24.913 18.3351L24.9522 18.3744L24.9911 18.4142L25.0297 18.4544L25.0678 18.4951L25.1056 18.5363L25.143 18.5779L25.1801 18.6199L25.2167 18.6624L25.2529 18.7053L25.2888 18.7486L25.3242 18.7924L25.3592 18.8366L25.3938 18.8812L25.428 18.9263L25.4618 18.9717L25.4951 19.0176L25.5279 19.0638L25.5604 19.1105L25.5924 19.1576L25.6239 19.2051L25.655 19.2529L25.6857 19.3012L25.7158 19.3498L25.7455 19.3988L25.7747 19.4482L25.8034 19.4979L25.8317 19.548L25.8594 19.5985L25.8867 19.6493L25.9135 19.7005L25.9397 19.752L25.9655 19.8038L25.9907 19.856L26.0154 19.9086L26.0396 19.9614L26.0633 20.0146L26.0865 20.0681L26.1091 20.1219L26.1312 20.176L26.1527 20.2304L26.1737 20.2851L26.1942 20.3401L26.2141 20.3954L26.2334 20.451L26.2522 20.5068L26.2704 20.5629L26.288 20.6193L26.3051 20.6759L26.3216 20.7328L26.3375 20.79L26.3529 20.8473L26.3677 20.9049L26.3818 20.9628L26.3954 21.0209L26.4084 21.0791L26.4208 21.1377L26.4326 21.1964L26.4437 21.2552L26.4543 21.3144L26.4643 21.3737L26.4737 21.4331L26.4824 21.4928L26.4905 21.5526L26.498 21.6126L26.5049 21.6728L26.5112 21.7331L26.5168 21.7935L26.5218 21.8541L26.5262 21.9149L26.5299 21.9757L26.533 22.0367L26.5354 22.0978L26.5373 22.159L26.5384 22.2203L26.539 22.2817L26.5388 22.3431L26.5381 22.4047L26.5367 22.4664L26.5346 22.5281L26.5319 22.5899L26.5285 22.6517L26.5245 22.7136L26.5198 22.7755L26.5144 22.8375L26.5084 22.8995L26.5018 22.9615L26.4944 23.0235L26.4864 23.0856L26.4778 23.1477L26.4685 23.2097L26.4585 23.2717L26.4478 23.3337L26.4365 23.3957L26.4245 23.4577L26.4119 23.5196L26.3985 23.5815L26.3845 23.6433L26.3699 23.7051L26.3545 23.7668L26.3385 23.8285L26.3219 23.89L26.3045 23.9515L26.2865 24.0128L26.2678 24.0741L26.2485 24.1353L26.2285 24.1963L26.2078 24.2573L26.1865 24.3181L26.1644 24.3787L26.1417 24.4393L26.1184 24.4996L26.0944 24.5599L26.0697 24.6199L26.0444 24.6798L26.0184 24.7395L25.9917 24.7991L25.9644 24.8584L25.9364 24.9175L25.9077 24.9765L25.8785 25.0352L25.8485 25.0937L25.8179 25.152L25.7866 25.21L25.7547 25.2678L25.7222 25.3254L25.689 25.3827L25.6551 25.4398L25.6207 25.4965L25.5855 25.5531L25.5498 25.6093L25.5134 25.6652L25.4763 25.7209L25.4387 25.7762L25.4004 25.8313L25.3615 25.886L25.3219 25.9404L25.2818 25.9945L25.241 26.0482L25.1996 26.1016L25.1576 26.1547L25.115 26.2074L25.0718 26.2597L25.028 26.3117L24.9836 26.3633L24.9385 26.4145L24.8929 26.4653L24.8467 26.5158L24.7999 26.5658L24.7526 26.6154L24.7046 26.6647L24.6561 26.7135L24.607 26.7618L24.5574 26.8098L24.5071 26.8573L24.4563 26.9043L24.405 26.9509L24.3531 26.9971L24.3007 27.0428L24.2477 27.088L24.1942 27.1327L24.1401 27.177L24.0855 27.2208L24.0304 27.264L23.9748 27.3068L23.9187 27.3491L23.862 27.3909L23.8049 27.4321L23.7472 27.4728L23.6891 27.5131L23.6304 27.5527L23.5713 27.5919L23.5117 27.6304L23.4516 27.6685L23.391 27.706L23.33 27.7429L23.2685 27.7792L23.2066 27.815L23.1442 27.8502L23.0813 27.8848L23.0181 27.9189L22.9544 27.9523L22.8903 27.9852L22.8257 28.0174L22.7608 28.0491L22.6954 28.0801L22.6296 28.1105L22.5635 28.1403L22.4969 28.1694L22.43 28.198L22.3627 28.2259L22.295 28.2531L22.2269 28.2797L22.1585 28.3057L22.0897 28.331L22.0206 28.3557L21.9512 28.3797L21.8814 28.403L21.8113 28.4257L21.7409 28.4476L21.6702 28.4689L21.5991 28.4896L21.5278 28.5095L21.4562 28.5288L21.3843 28.5473L21.3121 28.5652L21.2396 28.5823L21.1669 28.5988L21.0939 28.6145L21.0207 28.6296L20.9472 28.6439L20.8735 28.6575L20.7996 28.6704L20.7254 28.6826L20.6511 28.694L20.5765 28.7047L20.5018 28.7147L20.4268 28.724L20.3517 28.7325L20.2764 28.7402L20.2009 28.7473L20.1253 28.7535L20.0495 28.7591L19.9735 28.7638L19.8975 28.7679L19.8213 28.7712L19.745 28.7737L19.6685 28.7754L19.592 28.7764L19.5154 28.7767L19.4387 28.7762L19.3619 28.7749L19.285 28.7728L19.2081 28.77L19.1311 28.7664L19.054 28.762L18.9769 28.7569L18.8998 28.751L18.8227 28.7443L18.7455 28.7368L18.6684 28.7286L18.5912 28.7195L18.5141 28.7097L18.4369 28.6991L18.3598 28.6878L18.2827 28.6756L18.2057 28.6627L18.1287 28.649L18.0518 28.6345L17.9749 28.6193L17.8981 28.6032L17.8214 28.5864L17.7448 28.5687L17.6683 28.5503L17.5918 28.5312L17.5155 28.5112L17.4394 28.4904L17.3633 28.4689L17.2875 28.4466L17.2117 28.4235L17.1361 28.3996L17.0607 28.375L16.9854 28.3496L16.9104 28.3234L16.8355 28.2964L16.7608 28.2686L16.6864 28.2401L16.6121 28.2108L16.5381 28.1807L16.4643 28.1499L16.3908 28.1183L16.3175 28.0859L16.2444 28.0528L16.1717 28.0189L16.0991 27.9842L16.0269 27.9488L15.955 27.9126L15.8834 27.8757L15.8121 27.838L15.7411 27.7996L15.6704 27.7604L15.6001 27.7205L15.53 27.6798L15.4604 27.6384L15.3911 27.5963L15.3222 27.5534L15.2536 27.5098L15.1854 27.4655L15.1176 27.4204L15.0502 27.3746L14.9833 27.3281L14.9167 27.2809L14.8505 27.233L14.7848 27.1843L14.7195 27.135L14.6547 27.085L14.5903 27.0342L14.5264 26.9828L14.4629 26.9307L14.3999 26.8779L14.3374 26.8244L14.2754 26.7702L14.2139 26.7154L14.1529 26.6599L14.0924 26.6037L14.0324 26.5469L13.973 26.4894L13.914 26.4313L13.8557 26.3725L13.7979 26.3131L13.7406 26.253L13.6839 26.1924L13.6278 26.131L13.5723 26.0691L13.5173 26.0066L13.463 25.9434L13.4092 25.8797L13.356 25.8153L13.3035 25.7503L13.2516 25.6848L13.2003 25.6187L13.1496 25.552L13.0996 25.4847L13.0503 25.4169L13.0016 25.3485L12.9535 25.2795L12.9061 25.21L12.8594 25.14L12.8134 25.0694L12.7681 24.9983L12.7234 24.9267L12.6795 24.8546L12.6362 24.7819L12.5937 24.7088L12.5519 24.6351L12.5108 24.561L12.4704 24.4864L12.4308 24.4113L12.3919 24.3357L12.3537 24.2597L12.3163 24.1833L12.2797 24.1063L12.2438 24.029L12.2087 23.9512L12.1744 23.873L12.1408 23.7943L12.108 23.7153L12.076 23.6358L12.0448 23.556L12.0144 23.4757L11.9849 23.3951L11.9561 23.3141L11.9281 23.2328L11.9009 23.1511L11.8746 23.069L11.8491 22.9866L11.8244 22.9039L11.8005 22.8208L11.7775 22.7374L11.7554 22.6537L11.734 22.5697L11.7136 22.4854L11.694 22.4009L11.6752 22.316L11.6573 22.2309L11.6403 22.1455L11.6241 22.0599L11.6088 21.974L11.5944 21.8879L11.5809 21.8016L11.5682 21.715L11.5564 21.6283L11.5456 21.5413L11.5356 21.4542L11.5265 21.3668L11.5183 21.2793L11.511 21.1916L11.5046 21.1038L11.4991 21.0158L11.4945 20.9277L11.4908 20.8395L11.488 20.7511L11.4862 20.6626L11.4853 20.5741L11.4852 20.4854L11.4861 20.3966L11.488 20.3078L11.4907 20.2189L11.4944 20.1299L11.499 20.0409L11.5045 19.9519L11.5109 19.8628L11.5183 19.7737L11.5266 19.6846L11.5358 19.5955L11.546 19.5064L11.5571 19.4173L11.5691 19.3283L11.5821 19.2393L11.596 19.1503L11.6109 19.0614L11.6266 18.9725L11.6433 18.8837L11.661 18.795L11.6796 18.7064L11.6991 18.6179L11.7195 18.5295L11.7409 18.4413L11.7632 18.3531L11.7865 18.2651L11.8107 18.1773L11.8358 18.0896L11.8618 18.002L11.8888 17.9147L11.9167 17.8275L11.9455 17.7405L11.9753 17.6538L12.006 17.5672L12.0376 17.4809L12.0701 17.3948L12.1036 17.309L12.138 17.2234L12.1733 17.138L12.2095 17.053L12.2466 16.9682L12.2847 16.8837L12.3236 16.7995L12.3635 16.7156L12.4042 16.6321L12.4459 16.5488L12.4884 16.4659L12.5319 16.3834L12.5762 16.3012L12.6215 16.2194L12.6676 16.1379L12.7146 16.0568L12.7625 15.9762L12.8113 15.8959L12.8609 15.816L12.9115 15.7366L12.9629 15.6575L13.0151 15.5789L13.0682 15.5008L13.1222 15.4231L13.177 15.3459L13.2327 15.2692L13.2892 15.1929L13.3465 15.1171L13.4047 15.0419L13.4637 14.9671L13.5236 14.8929L13.5843 14.8191L13.6457 14.746L13.708 14.6733L13.7711 14.6012L13.835 14.5297L13.8997 14.4587L13.9652 14.3884L14.0315 14.3186L14.0986 14.2494L14.1664 14.1808L14.235 14.1128L14.3044 14.0454L14.3745 13.9787L14.4454 13.9126L14.517 13.8471L14.5893 13.7823L14.6624 13.7181L14.7363 13.6547L14.8108 13.5918L14.8861 13.5297L14.962 13.4683L15.0387 13.4075L15.116 13.3475L15.1941 13.2882L15.2728 13.2296L15.3522 13.1717L15.4323 13.1146L15.513 13.0582L15.5944 13.0025L15.6765 12.9476L15.7591 12.8935L15.8424 12.8402L15.9264 12.7876L16.0109 12.7358L16.0961 12.6848L16.1818 12.6346L16.2682 12.5852L16.3551 12.5366L16.4426 12.4888L16.5307 12.4419L16.6193 12.3958L16.7085 12.3505L16.7982 12.3061L16.8885 12.2625L16.9793 12.2198L17.0706 12.1779L17.1624 12.1369L17.2547 12.0968L17.3476 12.0575L17.4409 12.0191L17.5346 11.9817L17.6289 11.9451L17.7236 11.9094L17.8187 11.8746L17.9143 11.8408L18.0104 11.8078L18.1068 11.7758L18.2037 11.7447L18.3009 11.7145L18.3986 11.6853L18.4966 11.657L18.595 11.6297L18.6938 11.6033L18.7929 11.5778L18.8924 11.5533L18.9922 11.5298L19.0924 11.5073L19.1928 11.4857L19.2936 11.4651L19.3946 11.4455L19.4453 11.4361ZM20.6872 18.6964L19.5346 18.9718L19.4669 13.2623L19.4126 13.2745L19.3308 13.2938L19.2491 13.3139L19.168 13.3347L19.087 13.3563L19.0065 13.3787L18.926 13.402L18.8463 13.4258L18.7664 13.4506L18.6875 13.4759L18.6084 13.5022L18.5298 13.5292L18.4516 13.5569L18.3737 13.5853L18.2965 13.6144L18.2194 13.6444L18.1427 13.675L18.0665 13.7063L17.9904 13.7385L17.9153 13.7711L17.8402 13.8047L17.7658 13.8388L17.6915 13.8738L17.6179 13.9093L17.5445 13.9456L17.4719 13.9825L17.3996 14.0201L17.3278 14.0584L17.2565 14.0973L17.1856 14.1369L17.1152 14.1772L17.0456 14.218L16.9759 14.2597L16.9071 14.3018L16.8389 14.3446L16.7711 14.388L16.7037 14.4321L16.637 14.4768L16.5708 14.5221L16.5051 14.5679L16.4401 14.6143L16.3754 14.6614L16.3114 14.7091L16.248 14.7573L16.1851 14.8061L16.1229 14.8553L16.0613 14.9052L16.0001 14.9557L15.9395 15.0068L15.8797 15.0582L15.8204 15.1103L15.7617 15.1628L15.7036 15.2159L15.6461 15.2696L15.5893 15.3237L15.5331 15.3782L15.4774 15.4334L15.4225 15.4889L15.3682 15.545L15.3146 15.6014L15.2614 15.6586L15.2091 15.7159L15.1574 15.7738L15.1063 15.8322L15.056 15.8908L15.0062 15.9501L14.9573 16.0095L14.9088 16.0697L14.8612 16.13L14.8141 16.1909L14.7678 16.2522L14.7222 16.3137L14.6772 16.3756L14.633 16.4379L14.5894 16.5007L14.5465 16.5637L14.5044 16.6272L14.463 16.6908L14.4223 16.7548L14.3822 16.8193L14.343 16.8839L14.3043 16.9491L14.2665 17.0142L14.2293 17.0799L14.1928 17.1458L14.1572 17.2119L14.1222 17.2783L14.088 17.345L14.0544 17.4121L14.0217 17.4791L13.9896 17.5467L13.9583 17.6143L13.9278 17.6822L13.8979 17.7503L13.8688 17.8187L13.8405 17.8871L13.8129 17.9559L13.7861 18.0248L13.7599 18.0939L13.7346 18.163L13.71 18.2325L13.6861 18.3021L13.663 18.3718L13.6406 18.4416L13.619 18.5117L13.5981 18.5818L13.5781 18.6519L13.5587 18.7223L13.54 18.7928L13.5222 18.8633L13.5051 18.9339L13.4887 19.0046L13.4731 19.0754L13.4583 19.1463L13.4442 19.2171L13.4308 19.288L13.4182 19.3591L13.4064 19.43L13.3953 19.501L13.3849 19.5722L13.3753 19.6431L13.3665 19.7143L13.3584 19.7852L13.351 19.8563L13.3444 19.9275L13.3385 19.9984L13.3334 20.0694L13.329 20.1404L13.3253 20.2112L13.3224 20.282L13.3202 20.3527L13.3188 20.4235L13.318 20.4941L13.3181 20.5646L13.3188 20.635L13.3203 20.7054L13.3225 20.7756L13.3254 20.8457L13.329 20.9157L13.3334 20.9855L13.3385 21.0552L13.3443 21.1248L13.3508 21.1942L13.358 21.2636L13.3659 21.3325L13.3745 21.4016L13.3838 21.4702L13.3939 21.5389L13.4046 21.6072L13.416 21.6754L13.4281 21.7435L13.4409 21.8112L13.4544 21.8788L13.4685 21.946L13.4834 22.0132L13.4989 22.08L13.5151 22.1467L13.5319 22.2129L13.5495 22.2792L13.5676 22.3449L13.5864 22.4106L13.6059 22.4758L13.626 22.5409L13.6468 22.6056L13.6682 22.6699L13.6903 22.7342L13.713 22.798L13.7363 22.8614L13.7602 22.9247L13.7848 22.9876L13.81 23.0501L13.8358 23.1123L13.8621 23.1741L13.8892 23.2357L13.9168 23.2969L13.945 23.3577L13.9738 23.4181L14.0031 23.4781L14.0332 23.538L14.0636 23.5972L14.0947 23.6561L14.1264 23.7147L14.1587 23.7728L14.1915 23.8306L14.2248 23.888L14.2587 23.9448L14.2932 24.0014L14.3281 24.0575L14.3636 24.1131L14.3997 24.1684L14.4362 24.2232L14.4733 24.2777L14.5108 24.3314L14.5489 24.385L14.5875 24.438L14.6265 24.4905L14.6662 24.5427L14.7062 24.5943L14.7467 24.6454L14.7877 24.6961L14.8292 24.7464L14.871 24.796L14.9135 24.8453L14.9563 24.8941L14.9995 24.9423L15.0434 24.9901L15.0874 25.0372L15.132 25.0841L15.177 25.1303L15.2223 25.176L15.2682 25.2212L15.3144 25.2659L15.361 25.3101L15.408 25.3537L15.4554 25.3968L15.5032 25.4394L15.5513 25.4814L15.5998 25.5229L15.6486 25.5639L15.6978 25.6043L15.7474 25.6442L15.7974 25.6835L15.8475 25.7222L15.8981 25.7604L15.949 25.7981L16.0002 25.8352L16.0517 25.8717L16.1035 25.9077L16.1556 25.9431L16.208 25.9779L16.2606 26.0121L16.3135 26.0458L16.3669 26.079L16.4203 26.1114L16.474 26.1434L16.5281 26.1748L16.5822 26.2055L16.6366 26.2357L16.6915 26.2654L16.7464 26.2944L16.8015 26.3228L16.8568 26.3506L16.9125 26.3779L16.9681 26.4045L17.0242 26.4306L17.0803 26.4561L17.1365 26.4809L17.1931 26.5052L17.2498 26.5289L17.3065 26.552L17.3635 26.5745L17.4206 26.5963L17.478 26.6176L17.5352 26.6383L17.5929 26.6584L17.6504 26.6778L17.7081 26.6967L17.766 26.715L17.824 26.7327L17.882 26.7497L17.9401 26.7662L17.9984 26.782L18.0567 26.7973L18.115 26.8119L18.1734 26.826L18.2318 26.8394L18.2903 26.8522L18.3489 26.8645L18.4075 26.8761L18.4661 26.8872L18.5247 26.8976L18.5834 26.9075L18.6421 26.9167L18.7008 26.9254L18.7593 26.9334L18.818 26.9408L18.8766 26.9477L18.9353 26.954L18.9939 26.9596L19.0525 26.9647L19.111 26.9692L19.1694 26.9731L19.2279 26.9764L19.2862 26.9791L19.3444 26.9813L19.4028 26.9828L19.4608 26.9838L19.5188 26.9842L19.5768 26.984L19.6346 26.9833L19.6925 26.9819L19.7502 26.98L19.8076 26.9776L19.865 26.9745L19.9225 26.9709L19.9795 26.9667L20.0366 26.962L20.0934 26.9567L20.1502 26.9509L20.2068 26.9444L20.2631 26.9375L20.3195 26.93L20.3755 26.9219L20.4313 26.9133L20.4872 26.9042L20.5427 26.8945L20.598 26.8843L20.6532 26.8735L20.7082 26.8622L20.7628 26.8504L20.8172 26.8381L20.8716 26.8252L20.9257 26.8118L20.9795 26.798L21.0331 26.7836L21.0864 26.7687L21.1397 26.7532L21.1925 26.7373L21.2449 26.7209L21.2975 26.7039L21.3495 26.6865L21.4013 26.6687L21.4528 26.6503L21.504 26.6314L21.5551 26.612L21.6058 26.5922L21.6561 26.5719L21.7062 26.5512L21.756 26.5299L21.8056 26.5082L21.8546 26.4861L21.9036 26.4635L21.9521 26.4405L22.0002 26.417L22.0482 26.3931L22.0956 26.3688L22.1429 26.344L22.1898 26.3187L22.2363 26.2931L22.2824 26.2671L22.3283 26.2406L22.3738 26.2137L22.4188 26.1864L22.4635 26.1587L22.5079 26.1306L22.5519 26.1022L22.5956 26.0733L22.6388 26.0441L22.6817 26.0144L22.7242 25.9844L22.7662 25.9541L22.8079 25.9233L22.8492 25.8922L22.8901 25.8607L22.9306 25.8289L22.9708 25.7967L23.0104 25.7643L23.0497 25.7315L23.0885 25.6983L23.1269 25.6648L23.165 25.631L23.2026 25.5968L23.2398 25.5624L23.2764 25.5277L23.3128 25.4926L23.3487 25.4572L23.3842 25.4216L23.4192 25.3857L23.4537 25.3494L23.4878 25.313L23.5216 25.2761L23.5547 25.2392L23.5876 25.2018L23.6199 25.1642L23.6517 25.1265L23.6833 25.0883L23.7141 25.0501L23.7447 25.0115L23.7748 24.9728L23.8043 24.9338L23.8335 24.8945L23.8621 24.8552L23.8903 24.8154L23.9181 24.7755L23.9453 24.7356L23.9721 24.6952L23.9985 24.6548L24.0242 24.6142L24.0496 24.5734L24.0745 24.5324L24.0989 24.4912L24.1229 24.4499L24.1463 24.4084L24.1693 24.3668L24.1918 24.3249L24.2138 24.2831L24.2353 24.241L24.2564 24.1988L24.277 24.1565L24.2971 24.1139L24.3167 24.0714L24.3358 24.0287L24.3544 23.986L24.3726 23.943L24.3902 23.9001L24.4075 23.8568L24.4241 23.8139L24.4404 23.7703L24.456 23.7274L24.4713 23.6838L24.4861 23.6402L24.5003 23.5968L24.5141 23.5532L24.5274 23.5097L24.5403 23.4657L24.5525 23.4223L24.5645 23.3782L24.5758 23.3348L24.5867 23.2908L24.5971 23.2468L24.607 23.2031L24.6164 23.1595L24.6254 23.1153L24.6339 23.0716L24.6419 23.0275L24.6494 22.9839L24.6565 22.9401L24.6631 22.8962L24.6692 22.8523L24.6748 22.8085L24.68 22.7649L24.6847 22.7214L24.6889 22.6775L24.6927 22.634L24.696 22.5904L24.6988 22.5469L24.7012 22.5035L24.7031 22.4602L24.7045 22.4171L24.7055 22.3737L24.7061 22.3304L24.7062 22.2875L24.7058 22.2446L24.705 22.2018L24.7037 22.1591L24.702 22.1162L24.6998 22.0741L24.6972 22.0311L24.6942 21.9892L24.6907 21.9471L24.6868 21.9047L24.6824 21.8628L24.6777 21.8213L24.6724 21.7792L24.6668 21.738L24.6607 21.6965L24.6543 21.6556L24.6473 21.6143L24.64 21.5733L24.6323 21.5327L24.6242 21.4922L24.6156 21.4516L24.6066 21.4115L24.5973 21.3714L24.5875 21.3316L24.5774 21.2921L24.5667 21.2523L24.5559 21.2133L24.5445 21.1739L24.5328 21.1352L24.5207 21.0965L24.5082 21.0581L24.4953 21.0198L24.482 20.9816L24.4685 20.944L24.4545 20.9065L24.4401 20.8689L24.4254 20.8319L24.4103 20.7947L24.395 20.7584L24.3791 20.7217L24.3631 20.6856L24.3466 20.6498L24.3298 20.614L24.3127 20.5786L24.2952 20.5434L24.2774 20.5084L24.2593 20.4738L24.2408 20.4394L24.2221 20.4053L24.203 20.3714L24.1835 20.3378L24.1639 20.3045L24.1439 20.2715L24.1235 20.2386L24.1029 20.2063L24.082 20.1741L24.0608 20.1422L24.0393 20.1105L24.0176 20.0793L23.9955 20.0482L23.9732 20.0175L23.9506 19.9871L23.9277 19.957L23.9047 19.9272L23.8812 19.8976L23.8576 19.8685L23.8337 19.8396L23.8096 19.811L23.7852 19.7827L23.7607 19.7548L23.7358 19.7272L23.7107 19.6999L23.6854 19.6728L23.6599 19.6462L23.6341 19.6199L23.6081 19.5938L23.582 19.5682L23.5556 19.5429L23.5291 19.5179L23.5021 19.4931L23.4753 19.4688L23.4481 19.4447L23.4208 19.4211L23.3932 19.3977L23.3655 19.3748L23.3376 19.3521L23.3096 19.3298L23.2814 19.3078L23.253 19.2861L23.2245 19.2649L23.1958 19.2439L23.1669 19.2233L23.138 19.2031L23.1089 19.1831L23.0797 19.1636L23.0503 19.1444L23.0207 19.1255L22.9912 19.107L22.9613 19.0888L22.9315 19.071L22.9016 19.0536L22.8715 19.0365L22.8412 19.0197L22.811 19.0033L22.7807 18.9872L22.7502 18.9715L22.7198 18.9562L22.689 18.9411L22.6584 18.9265L22.6276 18.9123L22.5968 18.8983L22.5659 18.8847L22.5348 18.8714L22.504 18.8586L22.4728 18.8461L22.4416 18.8339L22.4105 18.8221L22.3793 18.8106L22.3481 18.7995L22.3168 18.7887L22.2855 18.7782L22.2543 18.7682L22.2229 18.7584L22.1915 18.749L22.1603 18.74L22.1287 18.7313L22.0975 18.723L22.0661 18.715L22.0347 18.7073L22.0033 18.7L21.972 18.693L21.9406 18.6864L21.9093 18.6801L21.8781 18.6741L21.8469 18.6685L21.8155 18.6632L21.7845 18.6583L21.7531 18.6537L21.7222 18.6494L21.691 18.6454L21.66 18.6418L21.6292 18.6385L21.5982 18.6356L21.5674 18.6329L21.5366 18.6306L21.5059 18.6286L21.4752 18.6269L21.4446 18.6256L21.4143 18.6246L21.3838 18.6238L21.3535 18.6234L21.3232 18.6233L21.2931 18.6236L21.263 18.6241L21.2331 18.6249L21.2032 18.6261L21.1736 18.6275L21.1438 18.6293L21.1144 18.6313L21.085 18.6336L21.0557 18.6363L21.0266 18.6392L20.9974 18.6424L20.9686 18.6459L20.9398 18.6497L20.9112 18.6538L20.8826 18.6582L20.8543 18.6628L20.826 18.6677L20.7981 18.6729L20.77 18.6784L20.7423 18.6841L20.7146 18.6901L20.6872 18.6964Z" fill="#14B8A6"/>
</svg>
